<mxfile host="app.diagrams.net" agent="Mozilla/5.0 (Macintosh; Intel Mac OS X 10_15_7) AppleWebKit/537.36 (KHTML, like Gecko) Chrome/140.0.0.0 Safari/537.36" version="28.2.3">
  <diagram name="Page-1" id="bANLRbDtALbotYBMAU-O">
    <mxGraphModel dx="1845" dy="655" grid="1" gridSize="10" guides="1" tooltips="1" connect="1" arrows="1" fold="1" page="1" pageScale="1" pageWidth="827" pageHeight="1169" math="0" shadow="0">
      <root>
        <mxCell id="0" />
        <mxCell id="1" parent="0" />
        <mxCell id="MkLwBhOLjbrI4pxsiHKQ-34" value="" style="rounded=0;whiteSpace=wrap;html=1;" vertex="1" parent="1">
          <mxGeometry x="-170" width="1130" height="930" as="geometry" />
        </mxCell>
        <mxCell id="MkLwBhOLjbrI4pxsiHKQ-31" style="edgeStyle=orthogonalEdgeStyle;rounded=0;orthogonalLoop=1;jettySize=auto;html=1;" edge="1" parent="1" source="MkLwBhOLjbrI4pxsiHKQ-2" target="MkLwBhOLjbrI4pxsiHKQ-5">
          <mxGeometry relative="1" as="geometry" />
        </mxCell>
        <mxCell id="MkLwBhOLjbrI4pxsiHKQ-2" value="" style="ellipse;whiteSpace=wrap;html=1;aspect=fixed;" vertex="1" parent="1">
          <mxGeometry y="30" width="160" height="160" as="geometry" />
        </mxCell>
        <mxCell id="MkLwBhOLjbrI4pxsiHKQ-3" value="Ads Publisher" style="text;strokeColor=none;align=center;fillColor=none;html=1;verticalAlign=middle;whiteSpace=wrap;rounded=0;strokeWidth=17;fontSize=18;fontStyle=1" vertex="1" parent="1">
          <mxGeometry y="70" width="160" height="30" as="geometry" />
        </mxCell>
        <mxCell id="MkLwBhOLjbrI4pxsiHKQ-4" value="Data Producer using CSV file and Python script" style="text;strokeColor=none;align=center;fillColor=none;html=1;verticalAlign=middle;whiteSpace=wrap;rounded=0;" vertex="1" parent="1">
          <mxGeometry x="15" y="120" width="130" height="30" as="geometry" />
        </mxCell>
        <mxCell id="MkLwBhOLjbrI4pxsiHKQ-7" style="edgeStyle=orthogonalEdgeStyle;rounded=0;orthogonalLoop=1;jettySize=auto;html=1;" edge="1" parent="1" source="MkLwBhOLjbrI4pxsiHKQ-5" target="MkLwBhOLjbrI4pxsiHKQ-6">
          <mxGeometry relative="1" as="geometry" />
        </mxCell>
        <mxCell id="MkLwBhOLjbrI4pxsiHKQ-5" value="&lt;b&gt;Ad Manager&lt;/b&gt;" style="whiteSpace=wrap;html=1;aspect=fixed;fontSize=18;" vertex="1" parent="1">
          <mxGeometry x="280" y="60" width="100" height="100" as="geometry" />
        </mxCell>
        <mxCell id="MkLwBhOLjbrI4pxsiHKQ-6" value="Postgres DB" style="image;html=1;image=img/lib/clip_art/computers/Database_128x128.png;fontSize=18;fontStyle=1" vertex="1" parent="1">
          <mxGeometry x="290" y="220" width="80" height="150" as="geometry" />
        </mxCell>
        <mxCell id="MkLwBhOLjbrI4pxsiHKQ-8" value="User Device" style="image;aspect=fixed;html=1;points=[];align=center;fontSize=12;image=img/lib/azure2/intune/Device_Compliance.svg;" vertex="1" parent="1">
          <mxGeometry x="827" y="250" width="100.29" height="110" as="geometry" />
        </mxCell>
        <mxCell id="MkLwBhOLjbrI4pxsiHKQ-9" value="Ads Server" style="whiteSpace=wrap;html=1;aspect=fixed;fontSize=18;fontStyle=1" vertex="1" parent="1">
          <mxGeometry x="510" y="194" width="96" height="96" as="geometry" />
        </mxCell>
        <mxCell id="MkLwBhOLjbrI4pxsiHKQ-26" style="edgeStyle=orthogonalEdgeStyle;rounded=0;orthogonalLoop=1;jettySize=auto;html=1;entryX=1;entryY=0.51;entryDx=0;entryDy=0;entryPerimeter=0;" edge="1" parent="1" source="MkLwBhOLjbrI4pxsiHKQ-10" target="MkLwBhOLjbrI4pxsiHKQ-25">
          <mxGeometry relative="1" as="geometry">
            <mxPoint x="510" y="640" as="targetPoint" />
            <Array as="points">
              <mxPoint x="560" y="641" />
            </Array>
          </mxGeometry>
        </mxCell>
        <mxCell id="MkLwBhOLjbrI4pxsiHKQ-10" value="Feedback Handler" style="whiteSpace=wrap;html=1;aspect=fixed;fontSize=18;fontStyle=1" vertex="1" parent="1">
          <mxGeometry x="510" y="330" width="100" height="100" as="geometry" />
        </mxCell>
        <mxCell id="MkLwBhOLjbrI4pxsiHKQ-12" value="" style="shape=flexArrow;endArrow=classic;html=1;rounded=0;" edge="1" parent="1">
          <mxGeometry width="50" height="50" relative="1" as="geometry">
            <mxPoint x="640" y="310" as="sourcePoint" />
            <mxPoint x="770" y="310" as="targetPoint" />
          </mxGeometry>
        </mxCell>
        <mxCell id="MkLwBhOLjbrI4pxsiHKQ-13" value="" style="shape=flexArrow;endArrow=classic;html=1;rounded=0;" edge="1" parent="1">
          <mxGeometry width="50" height="50" relative="1" as="geometry">
            <mxPoint x="770" y="240" as="sourcePoint" />
            <mxPoint x="640" y="240" as="targetPoint" />
          </mxGeometry>
        </mxCell>
        <mxCell id="MkLwBhOLjbrI4pxsiHKQ-14" value="" style="shape=flexArrow;endArrow=classic;html=1;rounded=0;" edge="1" parent="1">
          <mxGeometry width="50" height="50" relative="1" as="geometry">
            <mxPoint x="770" y="400" as="sourcePoint" />
            <mxPoint x="640" y="400" as="targetPoint" />
          </mxGeometry>
        </mxCell>
        <mxCell id="MkLwBhOLjbrI4pxsiHKQ-15" value="Request for Ad" style="text;strokeColor=none;align=center;fillColor=none;html=1;verticalAlign=middle;whiteSpace=wrap;rounded=0;fontSize=14;" vertex="1" parent="1">
          <mxGeometry x="670" y="200" width="110" height="30" as="geometry" />
        </mxCell>
        <mxCell id="MkLwBhOLjbrI4pxsiHKQ-16" value="Serve Ad" style="text;strokeColor=none;align=center;fillColor=none;html=1;verticalAlign=middle;whiteSpace=wrap;rounded=0;fontSize=14;" vertex="1" parent="1">
          <mxGeometry x="680" y="270" width="60" height="30" as="geometry" />
        </mxCell>
        <mxCell id="MkLwBhOLjbrI4pxsiHKQ-17" value="Share user interaction feedback" style="text;strokeColor=none;align=center;fillColor=none;html=1;verticalAlign=middle;whiteSpace=wrap;rounded=0;fontSize=14;" vertex="1" parent="1">
          <mxGeometry x="670" y="350" width="80" height="30" as="geometry" />
        </mxCell>
        <mxCell id="MkLwBhOLjbrI4pxsiHKQ-19" style="edgeStyle=orthogonalEdgeStyle;rounded=0;orthogonalLoop=1;jettySize=auto;html=1;exitX=1;exitY=0.25;exitDx=0;exitDy=0;" edge="1" parent="1" source="MkLwBhOLjbrI4pxsiHKQ-6">
          <mxGeometry relative="1" as="geometry">
            <mxPoint x="510" y="258" as="targetPoint" />
          </mxGeometry>
        </mxCell>
        <mxCell id="MkLwBhOLjbrI4pxsiHKQ-20" value="Auction" style="text;strokeColor=none;align=center;fillColor=none;html=1;verticalAlign=middle;whiteSpace=wrap;rounded=0;fontSize=14;" vertex="1" parent="1">
          <mxGeometry x="414" y="227" width="60" height="30" as="geometry" />
        </mxCell>
        <mxCell id="MkLwBhOLjbrI4pxsiHKQ-21" value="" style="endArrow=classic;startArrow=classic;html=1;rounded=0;entryX=0;entryY=0.5;entryDx=0;entryDy=0;exitX=1;exitY=0.75;exitDx=0;exitDy=0;" edge="1" parent="1" source="MkLwBhOLjbrI4pxsiHKQ-6" target="MkLwBhOLjbrI4pxsiHKQ-10">
          <mxGeometry width="50" height="50" relative="1" as="geometry">
            <mxPoint x="390" y="370" as="sourcePoint" />
            <mxPoint x="440" y="320" as="targetPoint" />
          </mxGeometry>
        </mxCell>
        <mxCell id="MkLwBhOLjbrI4pxsiHKQ-22" value="Slot Budget Manager" style="whiteSpace=wrap;html=1;aspect=fixed;fontSize=18;fontStyle=1" vertex="1" parent="1">
          <mxGeometry x="280" y="470" width="100" height="100" as="geometry" />
        </mxCell>
        <mxCell id="MkLwBhOLjbrI4pxsiHKQ-24" value="" style="endArrow=classic;startArrow=classic;html=1;rounded=0;" edge="1" parent="1">
          <mxGeometry width="50" height="50" relative="1" as="geometry">
            <mxPoint x="330" y="470" as="sourcePoint" />
            <mxPoint x="330" y="400" as="targetPoint" />
          </mxGeometry>
        </mxCell>
        <mxCell id="MkLwBhOLjbrI4pxsiHKQ-28" style="edgeStyle=orthogonalEdgeStyle;rounded=0;orthogonalLoop=1;jettySize=auto;html=1;" edge="1" parent="1" source="MkLwBhOLjbrI4pxsiHKQ-25" target="MkLwBhOLjbrI4pxsiHKQ-27">
          <mxGeometry relative="1" as="geometry" />
        </mxCell>
        <mxCell id="MkLwBhOLjbrI4pxsiHKQ-25" value="User Feedback" style="sketch=0;aspect=fixed;pointerEvents=1;shadow=0;dashed=0;html=1;strokeColor=none;labelPosition=center;verticalLabelPosition=bottom;verticalAlign=top;align=center;fillColor=#00188D;shape=mxgraph.azure.queue_generic;direction=east;fontStyle=1;fontSize=18;" vertex="1" parent="1">
          <mxGeometry x="360" y="620" width="140" height="42" as="geometry" />
        </mxCell>
        <mxCell id="MkLwBhOLjbrI4pxsiHKQ-30" style="edgeStyle=orthogonalEdgeStyle;rounded=0;orthogonalLoop=1;jettySize=auto;html=1;" edge="1" parent="1" source="MkLwBhOLjbrI4pxsiHKQ-27" target="MkLwBhOLjbrI4pxsiHKQ-29">
          <mxGeometry relative="1" as="geometry" />
        </mxCell>
        <mxCell id="MkLwBhOLjbrI4pxsiHKQ-27" value="User Feedback Writer" style="whiteSpace=wrap;html=1;aspect=fixed;fontSize=18;fontStyle=1" vertex="1" parent="1">
          <mxGeometry x="90" y="591" width="100" height="100" as="geometry" />
        </mxCell>
        <mxCell id="MkLwBhOLjbrI4pxsiHKQ-29" value="" style="sketch=0;outlineConnect=0;fontColor=#232F3E;gradientColor=none;fillColor=#7AA116;strokeColor=none;dashed=0;verticalLabelPosition=bottom;verticalAlign=top;align=center;html=1;fontSize=12;fontStyle=0;aspect=fixed;pointerEvents=1;shape=mxgraph.aws4.file_system;" vertex="1" parent="1">
          <mxGeometry x="101" y="800" width="78" height="73" as="geometry" />
        </mxCell>
        <mxCell id="MkLwBhOLjbrI4pxsiHKQ-32" style="edgeStyle=orthogonalEdgeStyle;rounded=0;orthogonalLoop=1;jettySize=auto;html=1;entryX=0;entryY=0.5;entryDx=0;entryDy=0;" edge="1" parent="1" source="MkLwBhOLjbrI4pxsiHKQ-29" target="MkLwBhOLjbrI4pxsiHKQ-6">
          <mxGeometry relative="1" as="geometry">
            <mxPoint x="-79.9976813000244" y="815.45" as="sourcePoint" />
            <mxPoint x="31.019999999999982" y="289.99999999999994" as="targetPoint" />
            <Array as="points">
              <mxPoint x="-20" y="837" />
              <mxPoint x="-20" y="295" />
            </Array>
          </mxGeometry>
        </mxCell>
        <mxCell id="MkLwBhOLjbrI4pxsiHKQ-33" value="Data can be ingested to DB for analysis" style="text;strokeColor=none;align=center;fillColor=none;html=1;verticalAlign=middle;whiteSpace=wrap;rounded=0;fontSize=14;" vertex="1" parent="1">
          <mxGeometry x="-30" y="257" width="280" height="30" as="geometry" />
        </mxCell>
      </root>
    </mxGraphModel>
  </diagram>
</mxfile>
